<?xml version="1.0" encoding="utf-8"?>
<!-- Generator: Adobe Illustrator 26.0.0, SVG Export Plug-In . SVG Version: 6.00 Build 0)  -->
<svg version="1.1" id="Layer_1" xmlns="http://www.w3.org/2000/svg" xmlns:xlink="http://www.w3.org/1999/xlink" x="0px" y="0px"
	 viewBox="0 0 1337.6 1685.4" style="enable-background:new 0 0 1337.6 1685.4;" xml:space="preserve">
<style type="text/css">
	.st0{fill:none;stroke:#18284C;stroke-width:6;stroke-linecap:round;stroke-linejoin:round;}
	.st1{fill:none;stroke:#18284C;stroke-width:6;stroke-linecap:round;stroke-linejoin:round;stroke-dasharray:0.5009,20.0359;}
	.st2{fill:none;stroke:#1A92FF;stroke-width:6;stroke-linecap:round;stroke-linejoin:round;}
	.st3{fill:none;stroke:#1A92FF;stroke-width:6;stroke-linecap:round;stroke-linejoin:round;stroke-dasharray:0.5013,20.0532;}
</style>
<g>
	<g>
		<path class="st0" d="M174.1,373.6c0,0,0-0.1,0.1-0.2"/>
		<path class="st1" d="M189.1,360.2c17-10.6,50.6-22.2,112.5-12.9c102.2,15.4,174.2,2.7,234.1-70.3
			c93.9-114.5,268.1-176.4,305.5-180.8s82.4,4.4,109.9,81.3c27.5,76.9,171.9,73.1,212.1,88c77.3,28.8,152.2,94.7,169.8,266.8
			c12.2,120-46.7,291.1-145.5,269.6c-245.7-53.5-294.2,162.2-429.8,221c-94.5,41-215.7,43.7-347-4.5
			c-146.9-54-284.9,14.3-319.5,123.9c-34.6,109.6,196.6,156.9,241.7,141.1c161.9-56.7,181.5,38.8,203.8,162.9
			c21.6,120.6,251.3,212.2,453.6,179.7"/>
		<path class="st0" d="M1000.2,1624.5c0,0,0.1,0,0.1,0"/>
	</g>
</g>
<g>
	<g>
		<path class="st2" d="M174.1,373.6c0,0,0-0.1,0.1-0.2"/>
		<path class="st3" d="M189.1,360.2c17-10.6,50.6-22.2,112.5-12.9c102.2,15.4,174.2,2.7,234.1-70.3
			c93.9-114.5,268.1-176.4,305.5-180.8c35.7-4.2,78.5,3.7,106.2,71.7"/>
		<path class="st2" d="M951,177.2c0,0.1,0.1,0.2,0.1,0.2"/>
	</g>
</g>
<image style="overflow:visible;" width="573" height="660" xlink:href="D61E8D3A.webp"  transform="matrix(0.24 0 0 0.24 80.1652 260.8043)">
</image>
<image style="overflow:visible;" width="868" height="726" xlink:href="D61E8D3E.webp"  transform="matrix(0.2719 0 0 0.2719 817.4374 0)">
</image>
<g>
	
		<image style="overflow:visible;" width="702" height="733" xlink:href="D61E8D39.webp"  transform="matrix(0.28 0 0 0.28 652.8439 852.1188)">
	</image>
</g>
<image style="overflow:visible;" width="818" height="856" xlink:href="D61E8D3B.webp"  transform="matrix(0.24 0 0 0.24 -3.672526e-02 1016.0566)">
</image>
<image style="overflow:visible;" width="1025" height="929" xlink:href="D61E8D38.webp"  transform="matrix(0.24 0 0 0.24 789.3233 1462.4567)">
</image>
</svg>
