<?xml version="1.0" encoding="utf-8"?>
<!-- Generator: Adobe Illustrator 26.0.0, SVG Export Plug-In . SVG Version: 6.00 Build 0)  -->
<svg version="1.1" id="Layer_1" xmlns="http://www.w3.org/2000/svg" xmlns:xlink="http://www.w3.org/1999/xlink" x="0px" y="0px"
	 viewBox="0 0 253.8 71.7" style="enable-background:new 0 0 253.8 71.7;" xml:space="preserve">
<style type="text/css">
	.st0{fill:#006BCC;}
	.st1{fill:#C1CCD6;}
	.st2{fill:#A1AAB3;}
	.st3{fill:#FFAA00;}
	.st4{fill:#005099;}
	.st5{fill:#FFCE00;}
	.st6{fill:#D97E00;}
	.st7{fill:#297ECC;}
	.st8{fill:#FFCC66;}
	.st9{fill:#FFFFFF;}
	.st10{fill:#00284C;}
	.st11{fill:#F0F4FC;}
</style>
<g>
</g>
<g>
	<g>
		<path class="st0" d="M53.3,71.7c-0.8,0-1.5-0.3-2.1-0.5c-0.8-0.3-1.7-0.7-2.9-0.7s-2.1,0.3-2.9,0.7c-0.7,0.3-1.4,0.5-2.1,0.5
			c-0.6,0-1.1-0.2-1.7-0.5c-1.3-0.8-2.5-3.2-4-7.9c0-0.2-0.1-0.3-0.1-0.3l-0.2-0.5c-0.1-0.2-0.2-0.3-0.6-0.7
			c-0.2-0.2-0.5-0.4-0.8-0.8c-0.5-0.5-0.8-1.1-1.1-1.8l-3.4,0l0,0.1l-1-0.3c-0.4-0.1-0.9-0.3-1.4-0.5c-4.3-1.5-8.3-3.6-12.2-6.4
			c-3.6-2.5-6.8-5.5-9.6-8.8C2.7,37.9,1,33.4,0.9,33.2L0,30.9l2.5,0.3c0.7,0.1,1.3,0.1,2,0.1c9,0,12.8-7.1,16.8-14.6
			c1-1.8,2-3.7,3-5.4c0.7-1.2,1.5-2.2,2.3-3.3c0.3-0.5,0.8-1,1.3-1.4c5.1-5.5,10.4-6.2,10.6-6.2L40.6,0l-0.5,2.1
			c-0.5,2.4-0.8,5.7,1,7.9c1.3,1.7,3.7,2.5,7.1,2.5c3.4,0,5.8-0.8,7.1-2.5c1.8-2.2,1.5-5.5,1-7.9L56,0l2.2,0.3
			c0.2,0,5.5,0.8,10.6,6.2C69.3,7,69.7,7.5,70,8c0.8,1,1.6,2.1,2.3,3.3c1.1,1.7,2.1,3.6,3,5.4c4,7.5,7.8,14.6,16.8,14.6
			c0.6,0,1.3,0,2-0.1l2.5-0.3l-0.9,2.3c-0.1,0.2-1.8,4.7-6.3,10.1c-2.7,3.3-6,6.3-9.6,8.8c-3.9,2.8-7.9,4.9-12.2,6.4
			c-0.5,0.2-1,0.4-1.4,0.5l-1,0.3l0-0.1l-3.4,0c-0.2,0.7-0.6,1.3-1.1,1.8c-0.3,0.3-0.6,0.6-0.8,0.8c-0.5,0.4-0.5,0.5-0.6,0.8
			L59.1,63c0,0.1-0.1,0.2-0.1,0.3c-1.4,4.7-2.7,7.1-4,7.9C54.5,71.6,53.9,71.7,53.3,71.7z"/>
		<path class="st1" d="M48.3,35.1c2.4-0.1,3.3-0.5,4.8-0.9c1.5-0.3,3,0,3,0s4.6-2.6,6.8-1.5c2.2,1.1,3.3,2.5,3.1,3.9
			c-0.2,1.5,1.7,7.6,0.5,10.4c-1.2,2.8-7,10.1-7,10.1s0.1,0.3-1.9,1.1c-1.9,0.7-2.8,0.3-2.8,0.3c-0.1,0,0.3,0.7-1.2,0.8
			c-1.5,0.1-2.2-0.2-2.2-0.2S51,60,49.6,59.9c-0.6,0-1-0.1-1.4-0.2c-0.3,0.1-0.8,0.2-1.4,0.2c-1.3,0-1.7-0.7-1.7-0.7
			s-0.7,0.3-2.2,0.2c-1.5-0.1-1.2-0.8-1.2-0.8c-0.1,0-0.9,0.5-2.8-0.3c-1.9-0.7-1.9-1.1-1.9-1.1s-5.8-7.3-7-10.1
			c-1.2-2.8,0.7-8.9,0.5-10.4c-0.2-1.5,0.9-2.8,3.1-3.9c2.2-1.1,6.8,1.5,6.8,1.5s1.5-0.3,3,0C45,34.6,45.9,35,48.3,35.1z"/>
		<path class="st2" d="M58.4,51.9C58.5,51.7,58.5,51.8,58.4,51.9c-0.2,0.2-0.3,0.4-0.4,0.5c-0.3,0.6-0.3,1.1-0.4,1.7
			c0-0.1-0.1,0.3-0.1,0.3c0,0.1-0.1,0.2-0.1,0.3c-0.1,0.2-0.2,0.3-0.3,0.5c-0.5-1.9-2.9-2.2-4.6-1.5c-0.6,0.2-1.3,0.7-2,0.7
			c-0.6,0-1.3-0.3-1.8-0.3c-0.4-0.1-0.9-0.1-1.3-0.1c-2.1-0.2-4.4-1.1-6.6-0.6c-0.5,0.1-0.9,0.4-1.2,0.7c0-0.2-0.1-0.4-0.1-0.6
			c-0.1-0.5-0.4-1-0.7-1.4c-0.2-0.2-0.3-0.4-0.5-0.5c-0.1-0.1-0.4-0.5-0.2-0.2c-0.5-1.1-2-1.4-3-0.8c-1.1,0.6-1.3,1.9-0.8,3
			c0.2,0.4,0.5,0.7,0.8,1c0,0,0.1,0.1,0.2,0.2c0,0,0,0.1,0,0.1c0,0.9,0.4,1.8,0.7,2.5c0.1,0.3,0.3,0.6,0.6,0.9
			c0,0.4,0.2,0.8,0.6,1.2c1.5,1.6,2.1,3.9,2.8,5.9c0.7,2.2,1.5,4.5,4.2,4.6c0.2,0,0.4,0,0.7,0c0,0,0,0,0,0c2.6-1.6,5.2-1.3,7.9-0.1
			c0.3,0.1,0.5,0.3,0.6,0.5c0.3-0.2,0.7-0.4,0.9-0.7c0.6-0.6,1.3-0.9,1.3-1.6c0.4-0.3,0.3-1.1,0.6-1.6c0.5-0.9,0.5-2,0.9-3
			c0.3-0.7,0.8-1.6,1.4-2.1c0.8-0.7,1.4-1,1.8-2.1c0.1-0.3,0.1-0.7,0-1.1c0,0,0,0,0,0c0.7-0.9,1.3-1.8,1.5-2.9
			c0.1-0.3,0-0.5,0.1-0.8c0,0,0,0,0,0c0.3-0.5,0.6-0.8,0.7-1.4C63.3,50.3,59.1,49.1,58.4,51.9z"/>
		<path class="st2" d="M48.3,34.9c2.5-0.2,4.3-1,5.8-1.1c1.6,0,2.2,0.3,2.2,0.3s-0.7,0.9-1.6,1.6c-0.9,0.7-2.8,1-3.7,1.9
			c-0.9,0.9,0.5,2.8,5.5-1.1c5-4,7.7-0.2,7.9,1c0,0-0.1-0.4-0.8-0.6c-0.3-0.1-0.7-0.2-0.9-0.3c0.5,0.1,1.1,0.5,1.3,1.6
			c0.3,1.8,1.1,1.9,1.1,1.9s-0.3,0.2-0.6,0.8c0.2-0.3,0.3-0.5,0.3-0.5l1.2-0.7l0.2,4.7c0,0-0.4,6.8-1.6,7.3c-1.1,0.6-4-0.7-4-0.7
			l-2.7,4.2c0,0-0.8-1.4-1.8-1.1c-1,0.3-1.5,1.5-1.5,1.5s-0.8-1.7-1.7-1.1c-0.9,0.6-1.6,1.6-1.6,1.6s-0.8-2-1.7-1.5
			c-0.5,0.3-1,0.7-1.3,0.9c-0.3-0.3-0.8-0.6-1.3-0.9c-1-0.6-1.7,1.5-1.7,1.5s-0.7-1-1.6-1.6c-0.9-0.6-1.7,1.1-1.7,1.1
			s-0.4-1.2-1.5-1.5c-1-0.3-1.8,1.1-1.8,1.1L36,51.1c0,0-2.9,1.2-4,0.7c-1.1-0.6-1.6-7.3-1.6-7.3l0.2-4.7l1.2,0.7
			c0,0,0.1,0.2,0.3,0.5c-0.2-0.5-0.6-0.8-0.6-0.8s0.8-0.2,1.1-1.9c0.2-1,0.8-1.4,1.3-1.6c-0.3,0-0.6,0.1-0.9,0.3
			c-0.7,0.3-0.8,0.6-0.8,0.6c0.2-1.2,2.9-4.9,7.9-1c5,4,6.4,2.1,5.5,1.1c-0.9-0.9-2.7-1.3-3.7-1.9c-0.9-0.7-1.6-1.6-1.6-1.6
			s0.5-0.4,2.2-0.3C44,33.9,45.7,34.7,48.3,34.9z M48.3,47.1l1.3-0.2c0,0,3.7,3.9,5.5,3.3c1.8-0.6,1.3-1.1,2.9-1.7
			c1.6-0.5,3.8-1.6,4.1-2.2c0.3-0.4,0.7-1.1,1-1.8c-0.6,0.6-1.4,1.2-2.7,1.6c-3.4,1.1-6.6-2.7-6.6-2.7l-2.3,0.3l-0.7,2
			c0,0-0.6-2.4-2.5-2.5c-1.9,0.1-2.5,2.5-2.5,2.5l-0.7-2l-2.3-0.3c0,0-3.2,3.8-6.6,2.7c-1.3-0.4-2.2-1-2.7-1.6
			c0.3,0.7,0.8,1.4,1,1.8c0.4,0.6,2.6,1.7,4.1,2.2c1.6,0.5,1.1,1.1,2.9,1.7c1.8,0.6,5.5-3.3,5.5-3.3L48.3,47.1z"/>
		<g>
			<path class="st1" d="M41.5,54.4c-0.3-0.4-0.7-0.8-1.2-0.8c-0.6,0-0.5,0.4-0.8,0.9c-0.4,0.7-0.3,1-0.4,1.5
				c-0.1,0.3,0.2,1.8,0.4,1.5c0.2-0.3,0.2-2.3,1-2.6c0.2-0.1,0.6,0.3,0.9,1C41.5,56.2,41.8,54.7,41.5,54.4z"/>
			<path class="st1" d="M40.8,58.3c-0.5-0.2-1-0.3-1.4,0.1c-0.4,0.3-0.2,0.6-0.1,1.2c0.1,0.8,0.3,1,0.5,1.5c0.1,0.3,1.2,1.4,1.2,1
				c0-0.3-1.2-2.1-0.6-2.7c0.1-0.2,0.7-0.1,1.3,0.4C41.8,59.8,41.1,58.4,40.8,58.3z"/>
			<path class="st1" d="M42.9,59c-0.5-0.2-1-0.3-1.4,0.1c-0.4,0.3-0.2,0.6-0.1,1.2c0.1,0.8,0.3,1,0.5,1.5c0.1,0.3,1.2,1.4,1.2,1
				c0-0.3-1.2-2.1-0.6-2.7c0.1-0.2,0.7-0.1,1.3,0.4C44,60.6,43.3,59.2,42.9,59z"/>
			<path class="st1" d="M45.1,59.9c-0.5-0.2-1-0.3-1.4,0.1c-0.4,0.3-0.2,0.6-0.1,1.2c0.1,0.8,0.3,1,0.5,1.5c0.1,0.3,1.2,1.4,1.2,1
				c0-0.3-1.2-2.1-0.6-2.7c0.1-0.2,0.7-0.1,1.3,0.4C46.1,61.4,45.4,60,45.1,59.9z"/>
			<path class="st1" d="M47.9,60.3c-0.4-0.3-0.9-0.6-1.4-0.4c-0.5,0.2-0.4,0.5-0.5,1c-0.2,0.8,0,1.1,0,1.6c0,0.4,0.6,1.7,0.8,1.3
				c0.1-0.3-0.4-2.3,0.3-2.8c0.2-0.1,0.6,0.1,1.1,0.8C48.4,62.1,48.2,60.5,47.9,60.3z"/>
			<path class="st1" d="M55.8,58.3c0.5-0.2,1-0.3,1.4,0.1c0.4,0.3,0.2,0.6,0.1,1.2c-0.1,0.8-0.3,1-0.5,1.5c-0.1,0.3-1.2,1.4-1.2,1
				c0-0.3,1.2-2.1,0.6-2.7c-0.1-0.2-0.7-0.1-1.3,0.4C54.7,59.8,55.4,58.4,55.8,58.3z"/>
			<path class="st1" d="M53.6,59c0.5-0.2,1-0.3,1.4,0.1c0.4,0.3,0.2,0.6,0.1,1.2c-0.1,0.8-0.3,1-0.5,1.5c-0.1,0.3-1.2,1.4-1.2,1
				c0-0.3,1.2-2.1,0.6-2.7c-0.1-0.2-0.7-0.1-1.3,0.4C52.5,60.6,53.2,59.2,53.6,59z"/>
			<path class="st1" d="M51.5,59.9c0.5-0.2,1-0.3,1.4,0.1c0.4,0.3,0.2,0.6,0.1,1.2c-0.1,0.8-0.3,1-0.5,1.5c-0.1,0.3-1.2,1.4-1.2,1
				c0-0.3,1.2-2.1,0.6-2.7c-0.1-0.2-0.7-0.1-1.3,0.4C50.4,61.4,51.1,60,51.5,59.9z"/>
			<path class="st1" d="M48.6,60.3c0.4-0.3,0.9-0.6,1.4-0.4c0.5,0.2,0.4,0.5,0.5,1c0.2,0.8,0,1.1,0,1.6c0,0.4-0.6,1.7-0.8,1.3
				c-0.1-0.3,0.4-2.3-0.3-2.8c-0.2-0.1-0.6,0.1-1.1,0.8C48.2,62.1,48.3,60.5,48.6,60.3z"/>
			<path class="st1" d="M43.6,55.3c-0.3-0.4-0.7-0.8-1.2-0.8c-0.6,0-0.5,0.4-0.8,0.9c-0.4,0.7-0.3,1-0.4,1.5
				c-0.1,0.3,0.2,1.8,0.4,1.5c0.2-0.3,0.2-2.3,1-2.6c0.2-0.1,0.6,0.3,0.9,1C43.6,57.1,43.8,55.6,43.6,55.3z"/>
			<path class="st1" d="M46,56.1c-0.3-0.4-0.7-0.8-1.2-0.8c-0.6,0-0.5,0.4-0.8,0.9c-0.4,0.7-0.3,1-0.4,1.5c-0.1,0.3,0.2,1.8,0.4,1.5
				c0.2-0.3,0.2-2.3,1-2.6c0.2-0.1,0.6,0.3,0.9,1C46,58,46.2,56.4,46,56.1z"/>
			<path class="st1" d="M48,56.3c-0.3-0.4-0.7-0.8-1.2-0.8c-0.6,0-0.5,0.4-0.8,0.9c-0.4,0.7-0.3,1-0.4,1.5c-0.1,0.3,0.2,1.8,0.4,1.5
				c0.2-0.3,0.2-2.3,1-2.6c0.2-0.1,0.6,0.3,0.9,1C48,58.2,48.2,56.7,48,56.3z"/>
			<path class="st1" d="M55.1,54.4c0.3-0.4,0.7-0.8,1.2-0.8c0.6,0,0.5,0.4,0.8,0.9c0.4,0.7,0.3,1,0.4,1.5c0.1,0.3-0.2,1.8-0.4,1.5
				c-0.2-0.3-0.2-2.3-1-2.6c-0.2-0.1-0.6,0.3-0.9,1C55.1,56.2,54.8,54.7,55.1,54.4z"/>
			<path class="st1" d="M53.1,55.3c0.3-0.4,0.7-0.8,1.2-0.8c0.6,0,0.5,0.4,0.8,0.9c0.4,0.7,0.3,1,0.4,1.5c0.1,0.3-0.2,1.8-0.4,1.5
				c-0.2-0.3-0.2-2.3-1-2.6c-0.2-0.1-0.6,0.3-0.9,1C53,57.1,52.8,55.6,53.1,55.3z"/>
			<path class="st1" d="M50.6,56.1c0.3-0.4,0.7-0.8,1.2-0.8c0.6,0,0.5,0.4,0.8,0.9c0.4,0.7,0.3,1,0.4,1.5c0.1,0.3-0.2,1.8-0.4,1.5
				c-0.2-0.3-0.2-2.3-1-2.6c-0.2-0.1-0.6,0.3-0.9,1C50.6,58,50.4,56.4,50.6,56.1z"/>
			<path class="st1" d="M48.6,56.3c0.3-0.4,0.7-0.8,1.2-0.8c0.6,0,0.5,0.4,0.8,0.9c0.4,0.7,0.3,1,0.4,1.5c0.1,0.3-0.2,1.8-0.4,1.5
				c-0.2-0.3-0.2-2.3-1-2.6c-0.2-0.1-0.6,0.3-0.9,1C48.6,58.2,48.4,56.7,48.6,56.3z"/>
		</g>
		<path class="st3" d="M48.3,28.4c5.9,0.2,11.2,2.8,11.2,2.8l0.9,0.8c0,0-3.6,2.1-3.8,2.2c-0.3,0.1-1.6-0.5-3.9,0.1
			c-2.3,0.6-3,0.7-3.8,0.7c-0.2,0-0.4,0-0.6,0c-0.2,0-0.4,0-0.6,0c-0.7,0-1.5-0.1-3.8-0.7c-2.3-0.6-3.6,0-3.9-0.1
			c-0.3-0.1-3.8-2.2-3.8-2.2l0.9-0.8C37.1,31.3,42.4,28.6,48.3,28.4z"/>
		<path class="st0" d="M48.3,18.4c6.8-0.2,10.6-2.1,11.8-4c1.2-2,2.2-4.6,2.2-4.6s4,3,6,6.8c2,3.8,4.7,9.6,8.6,13.8
			c3.9,4.2,9.5,6.3,11.9,6.6c2.4,0.3,3.3,0.3,3.3,0.3s-1.7,3-5.3,6.6c-5,4.9-12.7,8.5-12.7,8.5l-6.6,0.8c0,0,2.4-13.2,0.5-15.7
			c-1.9-2.6-6-5-6-5l-1.2-0.1c0,0-3.5-2.8-7.5-3.6c-2.3-0.5-4-0.5-5-0.4c-1-0.1-2.7,0-5,0.4c-4,0.8-7.5,3.6-7.5,3.6l-1.2,0.1
			c0,0-4,2.4-6,5C26.6,40,29,53.2,29,53.2l-6.6-0.8c0,0-7.7-3.6-12.7-8.5c-3.6-3.5-5.3-6.6-5.3-6.6s0.9,0,3.3-0.3
			c2.4-0.3,8-2.4,11.9-6.6c3.9-4.2,6.6-10,8.6-13.8c2-3.8,6-6.8,6-6.8s1,2.5,2.2,4.6C37.6,16.4,41.5,18.3,48.3,18.4z"/>
		<path class="st3" d="M48.3,14.1c9.8,0,10.8-8.8,9.7-12.2c0,0,8.5,2.7,11.2,6.7c2.7,3.9,7.1,13.2,9.4,16.7c2.3,3.5,6.7,6.3,9.6,7.1
			c2.9,0.9,5.9,0.6,5.9,0.6l-2.4,4.5c0,0-7.1-0.8-11.8-4.4c-4.8-3.6-7.5-9.4-9.5-12.6c-2-3.2-2.5-7-4.9-8.4C63.1,10.7,62,9.6,62,9.6
			s-1.7,5.2-4.1,6.6c-2.4,1.4-5.5,1.4-7.1,2c-0.9,0.3-1.7,0.2-2.5,0.3c-0.8-0.1-1.7,0-2.5-0.3c-1.6-0.6-4.7-0.6-7.1-2
			c-2.4-1.4-4.1-6.6-4.1-6.6s-1.1,1.1-3.5,2.4c-2.4,1.4-2.9,5.2-4.9,8.4c-2,3.2-4.7,9-9.5,12.6S4.9,37.5,4.9,37.5L2.5,33
			c0,0,3,0.3,5.9-0.6c2.9-0.9,7.3-3.6,9.6-7.1c2.3-3.5,6.7-12.7,9.4-16.7c2.7-3.9,11.2-6.7,11.2-6.7C37.4,5.3,38.5,14.1,48.3,14.1z"
			/>
		<path class="st4" d="M48.3,25.8c15.3,0,22,12.5,22,12.5s-3.1-3.7-5.6-4.8c-2.5-1.1-4-1.5-4-1.5s-3.3-2.2-7.1-3.2
			c-2.3-0.6-4.3-0.5-5.4-0.3c-1.2-0.2-3.1-0.3-5.4,0.3c-3.8,1-7.1,3.2-7.1,3.2s-1.5,0.4-4,1.5c-2.5,1.1-5.6,4.8-5.6,4.8
			S33,25.8,48.3,25.8z M85.2,36.4c-4-1.7-11-8.3-13.7-13.2c-1.1-2-2-4.6-3.2-6.6c-1.7-2.9-3.4-4.9-3.4-4.9l-2.4-1.3
			c5.8,4.2,6.4,17.1,12.7,22.5c0,0-7.9-0.7-9.5-8.6c0,0-0.8,4.3,2.4,9c3.2,4.7,3.7,8.5,3.3,10.1c0,0-0.9-2.5-2.1-4
			c-1.2-1.5-1.6-0.8-1.7,1.2c-0.1,2-1.4,12.7-1.4,12.7s6.6-1.1,9.7-1.6c3.1-0.5,8.2-5.3,11.2-8.3c3-3,4.8-6.7,4.8-6.7
			S88.5,37.8,85.2,36.4z M4.4,36.7c0,0,1.8,3.7,4.8,6.7c3,3,8.1,7.8,11.2,8.3c3.1,0.5,9.7,1.6,9.7,1.6s-1.3-10.7-1.4-12.7
			c-0.1-2-0.4-2.7-1.7-1.2s-2.1,4-2.1,4c-0.5-1.6,0.1-5.4,3.3-10.1c3.2-4.7,2.4-9,2.4-9c-1.6,7.9-9.5,8.6-9.5,8.6
			c6.4-5.5,6.9-18.4,12.7-22.5l-2.4,1.3c0,0-1.7,2-3.4,4.9c-1.1,2-2,4.5-3.2,6.6c-2.8,4.9-9.8,11.6-13.7,13.2
			C8,37.8,4.4,36.7,4.4,36.7z"/>
		<path class="st5" d="M37.9,42.3c0,1.1,0.9,1.9,1.9,1.9c1.1,0,1.9-0.9,1.9-1.9c0-1.1-0.9-1.9-1.9-1.9
			C38.7,40.4,37.9,41.2,37.9,42.3z"/>
		<g>
			<path class="st6" d="M48.3,15.9c12,0,13.4-9.2,13.4-9.2s5.2,2.1,9.6,11c4.3,8.8,10.7,16.1,22.4,15.4c0,0,0.4,0.9-0.5,2.2
				c-0.9,1.3-1.8,2.2-1.8,2.2s-6.1,0.3-9.7-2.5c-3.7-2.7-7.7-8.7-9.5-10.9c-1.7-2.2-2.8-6.7-5.2-9.6c-2.4-2.9-1.7-3.1-3.3-4
				C62,9.6,62,9.6,62,9.6s-0.5,4.7-3.7,6.2c-3.2,1.5-4.8,2.4-7.3,2.9c-1,0.2-1.8-0.3-2.7-0.3c-0.9,0-1.7,0.5-2.7,0.3
				c-2.5-0.4-4.1-1.4-7.3-2.9c-3.2-1.5-3.7-6.2-3.7-6.2s0,0-1.6,0.8c-1.6,0.8-0.8,1-3.3,4c-2.4,2.9-3.5,7.4-5.2,9.6
				c-1.7,2.2-5.8,8.2-9.5,10.9c-3.7,2.7-9.7,2.5-9.7,2.5s-1-0.9-1.8-2.2C2.6,33.9,3,33,3,33c11.7,0.7,18.1-6.6,22.4-15.4
				c4.3-8.8,9.6-11,9.6-11S36.3,15.9,48.3,15.9z M48.3,35.3c0.3,0,0.6,0,1,0c1.4-0.1,2.4-0.8,4.9-1.3c2.5-0.5,2.2,0.3,2.2,0.3
				l0.6-1.3c-2.1-1.4-4.9,0.1-8.6,0.2c-3.7-0.2-6.4-1.7-8.6-0.2l0.6,1.3c0,0-0.4-0.8,2.2-0.3c2.5,0.5,3.5,1.2,4.9,1.3
				C47.7,35.3,48,35.3,48.3,35.3z M54.8,30.4c-3-0.2-5,0.8-5,0.8s1-0.1,1.5,0c0.5,0.1,1,0.2,2.9,0.3c1.8,0.1,3.4,1.3,3.4,1.4
				l2.1-0.6l0-1C59.7,31.4,57.6,30.6,54.8,30.4z M36.8,31.4l0,1l2.1,0.6c0.1-0.1,1.6-1.3,3.4-1.4c1.8-0.1,2.3-0.2,2.9-0.3
				c0.5-0.1,1.5,0,1.5,0s-2-1-5-0.8C38.9,30.6,36.8,31.4,36.8,31.4z"/>
		</g>
		<g>
			<path class="st7" d="M61,18.6c0,0-2.4,2.6-6.3,2.2c0,0,3.2-0.7,5.3-3.3L61,18.6z M35.5,18.6c0,0,2.4,2.6,6.3,2.2
				c0,0-3.2-0.7-5.3-3.3L35.5,18.6z"/>
		</g>
		<g>
			<path class="st8" d="M48.3,13.9c0.7,0,1.8,0.1,2.6,0c1.2-0.2,1.5-0.2,3.9-1.1c2.4-0.9,2.8-2.4,3.6-4.8c0.8-2.4-0.1-6-0.1-6
				s1.3,0.2,2.2,0.8C61.4,3.5,65.7,5.5,67,7c1.3,1.5,4,5.3,4,5.3l0.8,2.1C66.3,4.8,59.5,3.5,59.5,3.5c1.3,7.4-3.4,11.5-11.2,11.5
				c-7.9,0-12.5-4.1-11.2-11.5c0,0-6.8,1.2-12.3,10.9l0.8-2.1c0,0,2.7-3.8,4-5.3c1.3-1.5,5.6-3.5,6.5-4.1C36.9,2.2,38.3,2,38.3,2
				s-0.8,3.6-0.1,6c0.8,2.4,1.2,3.9,3.6,4.8c2.4,0.9,2.6,0.9,3.9,1.1C46.4,14,47.5,14,48.3,13.9z M48.3,29.7c1.5,0,3.7,0,3.7,0
				s-1.9-0.5-3.7-0.5c-1.9,0.1-3.7,0.5-3.7,0.5S46.7,29.7,48.3,29.7z M48.3,31.9c1,0,3,0.2,3,0.2s-1.4-0.6-3-0.6c-1.6,0-3,0.6-3,0.6
				S47.2,31.9,48.3,31.9z"/>
		</g>
		<path class="st9" d="M63.3,34.6c0,0-2.8-1.8-6.5,0.7c0,0,1.9-1.8,4-1.8C62.8,33.4,63.3,34.6,63.3,34.6z M53.9,47.7
			c0,0,0.3,0.6,1,1c0,0-0.3,0.1-0.6,0c0,0,0.9,0.7,2.1,0C56.4,48.7,54.8,48.8,53.9,47.7z"/>
		<path class="st9" d="M33.3,34.6c0,0,2.8-1.8,6.5,0.7c0,0-1.9-1.8-4-1.8C33.7,33.4,33.3,34.6,33.3,34.6z M42.6,47.7
			c0,0-0.3,0.6-1,1c0,0,0.3,0.1,0.6,0c0,0-0.9,0.7-2.1,0C40.1,48.7,41.8,48.8,42.6,47.7z"/>
		<path class="st1" d="M50.6,67.5c-0.3,0-1.4-0.3-2.2-0.3c-0.8,0-1.9,0.3-2.2,0.3c-0.3,0,0.2-1.4,2.2-1.4
			C50.3,66.1,50.9,67.4,50.6,67.5z"/>
		<g>
			<path class="st10" d="M91.9,37c0,0-13-0.6-19.9-15c0,0,7,13.6,21,13.2L91.9,37z"/>
			<path class="st10" d="M4.7,37c0,0,13-0.6,19.9-15c0,0-7,13.6-21,13.2L4.7,37z"/>
			<path class="st10" d="M48.3,17.6c8.1,0,11.7-4.6,12.5-6.3c0,0-4.3,5.2-12.5,5.2c-8.2,0-12.5-5.2-12.5-5.2
				C36.6,13,40.2,17.6,48.3,17.6z"/>
			<path class="st10" d="M46.6,43.5c0,0-1,0-1.4-1.2c0,0,1.2-0.2,1.8-1.6c0.5-1.3-0.6-1.9-0.6-1.9s0.4,0.5,0,1.3
				c-0.4,0.8-2.5,1.4-4.7-0.7c-2.2-2.1-5.9-5.3-8.7-2.4c0,0,2.8-0.9,3.9,1.3c0,0-2.5-0.7-3.2,2.2c-0.7,2.8,1.1,6.7,6.2,6.1
				c0,0-2.7,1.4-5.3-0.3c0,0,2.5,2.1,5.8,1.6c3.3-0.6,3.7-3.4,3.7-3.4s0.8,1.7-0.8,4.1C43.2,48.7,45.9,47.3,46.6,43.5z M39.8,43.5
				c-0.6,0-1.2-0.5-1.2-1.2c0-0.6,0.5-1.2,1.2-1.2c0.6,0,1.2,0.5,1.2,1.2C40.9,42.9,40.4,43.5,39.8,43.5z"/>
			<path class="st10" d="M48.3,45.2c0,0-2.9,3-3.5,4.4C44,51,44.6,52,46.1,52.4c0,0-0.9-0.7-0.7-1.5c0,0,0.3,1.1,1.4,1.2
				c1,0.1,1.3-0.4,1.5-0.6c0.3,0.3,0.5,0.8,1.5,0.6c1.1-0.1,1.4-1.2,1.4-1.2c0.2,0.8-0.7,1.5-0.7,1.5c1.5-0.4,2-1.4,1.4-2.8
				C51.1,48.2,48.3,45.2,48.3,45.2z"/>
			<path class="st10" d="M94.2,32.2c-11.1,1.2-15.5-7.1-19.7-15.1c-1-1.8-1.9-3.6-3-5.3C65.7,2.4,58.3,1.4,58,1.3l-0.7-0.1l0.2,0.7
				c0.6,2.6,0.8,6.3-1.2,8.8c-1.5,1.9-4.2,2.9-7.9,2.9c-3.7,0-6.4-1-7.9-2.9c-2-2.5-1.8-6.2-1.2-8.8l0.2-0.7l-0.7,0.1
				c-0.3,0-7.7,1.1-13.4,10.5c-1,1.7-2,3.5-3,5.3c-4.3,8-8.7,16.2-19.7,15.1l-0.8-0.1l0.3,0.8C1.9,33,3.6,37.4,8,42.7
				c2.2,2.6,5.2,5.7,9.4,8.6c3.6,2.6,7.5,4.7,11.9,6.2c0.5,0.2,0.9,0.3,1.4,0.5l0,0c0.2,0.1,0.4,0.1,0.6,0.2l4.2,0
				c0.1,0.7,0.4,1.5,1,2.1c0.3,0.3,0.6,0.6,0.8,0.8c0.5,0.5,0.7,0.7,0.9,1.1h0l0.2,0.6c0.2,0.5,1.9,6.6,3.6,7.7
				c0.4,0.2,0.7,0.3,1.1,0.3c0.6,0,1.1-0.2,1.8-0.5c0.9-0.3,1.9-0.7,3.3-0.7c1.4,0,2.4,0.4,3.3,0.7c1,0.4,1.9,0.7,2.9,0.1
				c1.8-1.1,3.5-7.1,3.6-7.7l0.2-0.5c0.2-0.4,0.4-0.6,0.9-1.1c0.2-0.2,0.5-0.4,0.8-0.8c0.6-0.6,0.9-1.4,1-2.1l4.2,0
				c0.2-0.1,0.4-0.1,0.6-0.2l0,0c0.5-0.2,1-0.3,1.4-0.5c4.5-1.5,8.3-3.6,11.9-6.2c4.1-2.9,7.2-6,9.4-8.6c4.4-5.3,6.1-9.6,6.1-9.8
				l0.3-0.8L94.2,32.2z M59.2,59.6c-0.3,0.3-0.5,0.5-0.7,0.7c-0.6,0.6-0.9,0.9-1.2,1.8c0,0-1,3.6-1.5,4.6c0-0.4-0.2-0.8-0.5-1.1
				c0,0,0.3,3.9-2,4.2c-0.3,0-0.8-0.2-1.3-0.4c-0.9-0.4-2-0.8-3.6-0.8c-1.6,0-2.7,0.4-3.6,0.8c-0.6,0.2-1,0.4-1.3,0.4
				c-2.3-0.3-2-4.2-2-4.2c-0.3,0.3-0.5,0.6-0.5,1.1c-0.5-1-1.5-4.6-1.5-4.6c-0.3-0.9-0.6-1.2-1.2-1.8c-0.2-0.2-0.4-0.4-0.7-0.7
				c-0.4-0.4-0.6-0.9-0.7-1.5c-0.1-0.5-0.1-1-0.2-1.5c0-0.4,0-0.7-0.1-0.9c-0.1-0.4-0.3-0.7-0.5-1c-0.3-0.4-0.6-0.9-0.8-1.9
				c0-0.1,0-0.2,0-0.3c0,0,0-0.1,0-0.1c0-0.1,0-0.2,0-0.2c0,0,0,0,0-0.1c0-0.1,0-0.2,0-0.3c0,0,0,0,0-0.1c0-0.1,0-0.1,0-0.2
				c0,0,0-0.1,0-0.1c0-0.1,0-0.1,0-0.2c0,0,0,0,0,0c0-0.1,0-0.1,0.1-0.2c0,0,0,0,0,0c0-0.1,0-0.1,0.1-0.2c0,0,0,0,0,0
				c0-0.1,0-0.1,0.1-0.2c0,0,0,0,0,0c0.7,0,1.3,0.1,1.3,0.1s2,3.5,2,5c0,1.5,0.1,2.1,0.1,3.1c0.1,0.6,0.3,1.3,0.6,2
				c0.3,0.8,0.8,1.3,1.3,1.4c0.1,0,0.2,0,0.3,0c0.2,0,0.4-0.1,0.7-0.2c0.1,0.1,0.2,0.2,0.3,0.3c0.4,0.4,0.8,0.7,1.3,0.7
				c0.2,0,0.5-0.1,0.7-0.2c0.1,0.2,0.2,0.4,0.3,0.5c0.2,0.3,0.6,0.5,0.9,0.5c0.1,0,0.1,0,0.2,0c0.3,0,0.6-0.2,0.8-0.5
				c0.3,0.5,0.6,0.8,1.1,0.8c0,0,0,0,0,0c0.4,0,0.7-0.3,0.9-0.7c0.2,0.4,0.5,0.7,0.9,0.7c0,0,0,0,0,0c0.5,0,0.8-0.3,1.1-0.8
				c0.2,0.2,0.5,0.4,0.8,0.5c0.1,0,0.1,0,0.2,0c0.3,0,0.7-0.2,0.9-0.5c0.1-0.1,0.2-0.3,0.3-0.5c0.3,0.2,0.5,0.2,0.7,0.2
				c0.5,0,0.9-0.3,1.3-0.7c0.1-0.1,0.2-0.2,0.3-0.3c0.3,0.2,0.5,0.2,0.7,0.2c0.1,0,0.2,0,0.3,0c0.5-0.1,0.9-0.6,1.3-1.4
				c0.3-0.7,0.5-1.4,0.6-2c0,0,0,0,0,0c0,0,0,0,0-0.1c0.1-0.9,0.1-1.6,0.1-3.1c0-1.5,2-5,2-5s0.6-0.1,1.3-0.1
				c0.2,0.4,0.5,1.2,0.3,2.3c0,0.2-0.1,0.4-0.1,0.6c-0.2,0.6-0.4,0.9-0.6,1.2c-0.2,0.3-0.4,0.6-0.5,1c0,0,0,0,0,0c0,0,0,0,0,0.1
				c-0.1,0.2-0.1,0.6-0.1,0.9C60.1,57.6,60,58.8,59.2,59.6z M40.9,58.1c-0.7-0.2-1.2-0.8-1.4-1c0-1.9,0.5-2.7,0.8-3
				c0-0.1,0.2-0.2,0.3-0.2c0.2,0,0.6,0.4,0.8,1.2C41.1,55.9,40.9,56.9,40.9,58.1z M41.4,61.4c-0.2,0.1-0.3,0.1-0.4,0.1
				c-0.2-0.1-0.5-0.4-0.7-0.9c-0.4-0.9-0.6-1.6-0.7-2.3c0.4,0.3,0.8,0.5,1.3,0.6C40.9,59.8,41.1,60.7,41.4,61.4z M43.1,58.8
				c-0.5,0-1.1-0.3-1.4-0.5c-0.1-1.7,0.4-3.2,0.7-3.4c0.1,0,0.1-0.1,0.2,0c0.1,0,0.5,0.2,0.9,1.3C43.2,56.8,43.1,57.7,43.1,58.8z
				 M43.7,62.2c-0.4,0.3-0.6,0.2-1.1-0.3c-0.4-0.4-0.8-1.4-0.9-2.6c0.4,0.2,0.9,0.4,1.4,0.4C43.2,60.6,43.4,61.5,43.7,62.2z
				 M45.4,59.5c-0.8,0.1-1.3-0.3-1.5-0.5c0-2.5,0.7-3.1,0.8-3.1c0.3,0,0.6,0.4,0.8,1.2C45.2,58.1,45.3,59,45.4,59.5z M45.5,60.3
				c0,0.5,0.1,1.5,0.4,2.3c-0.2,0.3-0.4,0.5-0.6,0.5c0,0-0.2,0-0.3-0.2c-0.2-0.3-0.9-1.5-1.1-2.9c0.3,0.2,0.8,0.3,1.3,0.3
				C45.3,60.3,45.4,60.3,45.5,60.3z M47.9,62.6L47.9,62.6c-0.1,0.2-0.4,0.8-0.6,0.8c0,0,0,0,0,0c-0.3,0-0.9-0.9-1-3.1
				c0.4,0.1,1,0.1,1.7,0C48,60.8,48.2,61.9,47.9,62.6L47.9,62.6z M46.2,59.5c-0.1-0.4-0.2-1.3,0.1-2.3c0.1-0.5,0.4-0.9,0.6-0.9
				c0.3,0,0.7,0.3,0.9,1c0.1,0.4,0.2,1.4,0.2,2.2C47.2,59.7,46.5,59.6,46.2,59.5z M48.6,60.3c0.3,0,0.5,0.1,0.8,0.1
				c0.3,0,0.6,0,0.9-0.1c-0.2,2.2-0.8,3.1-1,3.1c0,0,0,0,0,0c-0.2-0.1-0.5-0.6-0.6-0.8l0,0h0C48.4,61.9,48.5,60.8,48.6,60.3z
				 M48.5,59.5c0-0.7,0.2-1.8,0.2-2.2c0.3-0.7,0.7-1,0.9-1c0.3,0,0.5,0.3,0.6,0.9c0.2,1,0.1,1.9,0.1,2.3
				C50,59.6,49.3,59.7,48.5,59.5z M51.1,57c0.2-0.8,0.5-1.2,0.8-1.2c0.1,0,0.8,0.7,0.8,3.1c-0.2,0.2-0.7,0.6-1.5,0.5
				C51.3,59,51.3,58.1,51.1,57z M51.4,60.3c0.5,0,0.9-0.1,1.3-0.3c-0.2,1.5-0.8,2.7-1.1,2.9c-0.2,0.2-0.3,0.2-0.3,0.2
				c-0.2,0-0.4-0.2-0.6-0.5c0.3-0.8,0.4-1.8,0.4-2.3C51.2,60.3,51.3,60.3,51.4,60.3z M53.5,59.6c0.5,0,1-0.2,1.4-0.4
				c-0.1,1.2-0.5,2.2-0.9,2.6c-0.5,0.5-0.7,0.6-1.1,0.3C53.1,61.5,53.4,60.6,53.5,59.6z M53,56.2c0.4-1,0.8-1.2,0.9-1.3
				c0.1,0,0.2,0,0.2,0c0.3,0.2,0.8,1.6,0.7,3.4c-0.3,0.2-0.9,0.5-1.4,0.5C53.4,57.7,53.3,56.8,53,56.2z M55.2,55.1
				c0.2-0.8,0.6-1.2,0.8-1.2c0.2,0,0.3,0.1,0.3,0.2c0.2,0.3,0.7,1.2,0.8,3c-0.2,0.2-0.7,0.8-1.4,1C55.7,56.9,55.5,55.9,55.2,55.1z
				 M55.6,58.9c0.5-0.1,1-0.4,1.3-0.6c-0.1,0.7-0.3,1.5-0.7,2.3c-0.2,0.5-0.5,0.9-0.7,0.9c-0.1,0-0.3,0-0.4-0.1
				C55.4,60.7,55.6,59.8,55.6,58.9z M65.1,45.2c0.2,1.7-0.4,4.5-4,4.4c-3.5-0.1-5.9,0.4-6.4,3.4c0,0,1.5-2.1,4.1-2.2
				c0,0-1.1,1.8-1.5,3.6l-0.1-0.3c-0.1-0.2-0.2-0.4-0.3-0.5c-0.3-0.4-0.7-0.5-1.1-0.5c-0.4,0.1-0.8,0.3-1.2,1.2
				c-0.3-0.2-0.6-0.3-0.9-0.2c-0.3,0.1-0.8,0.4-1.2,1.2c-0.3-0.3-0.5-0.3-0.7-0.3c-0.4,0-0.7,0.2-1,0.6c-0.2,0-0.5,0-0.7,0
				c-0.2-0.1-0.3-0.1-0.4-0.1c-0.2,0-0.4,0-0.6,0.1c-0.6,0-1.2,0-1.7,0c-0.2-0.1-0.4-0.1-0.6-0.1c-0.1,0-0.2,0-0.4,0.1
				c-0.3,0-0.5,0-0.8,0c-0.3-0.4-0.6-0.5-1-0.6c-0.2,0-0.4,0-0.7,0.3c-0.4-0.8-0.8-1.1-1.2-1.2c-0.3-0.1-0.7,0-0.9,0.2
				c-0.4-0.9-0.8-1.1-1.2-1.2c-0.4-0.1-0.8,0.1-1.1,0.5c-0.1,0.1-0.2,0.3-0.3,0.5l-0.1,0.3c-0.4-1.8-1.5-3.6-1.5-3.6
				c2.6,0.1,4.1,2.2,4.1,2.2c-0.5-3-2.8-3.5-6.4-3.4c-3.5,0.1-4.2-2.7-4-4.4c0.2-1.7-0.4-4.6-0.4-4.6c1,1.4,1.3,3.7,1.3,3.7
				c1-3-1.8-7.3-0.6-9.3c1.2-2,4.5-3.1,7.9-0.4c3.4,2.8,5.5,2.6,5.5,2.6s-1.8-0.6-4-2.6c1-0.1,1.9,0.1,3,0.4
				c1.1,0.3,2.4,0.6,3.9,0.6c1.5,0,2.8-0.3,3.9-0.6c1.1-0.3,2.1-0.5,3-0.4c-2.2,2-4,2.6-4,2.6s2.1,0.2,5.5-2.6
				c3.4-2.8,6.7-1.7,7.9,0.4c1.2,2-1.6,6.3-0.6,9.3c0,0,0.4-2.3,1.3-3.7C65.5,40.6,64.9,43.5,65.1,45.2z M56.8,33
				c-0.3,0.2-0.5,0.5-0.8,0.7c-1.5-0.4-2.8-0.1-4.1,0.2c-1.1,0.3-2.2,0.6-3.6,0.6s-2.5-0.3-3.6-0.6c-1.4-0.4-2.7-0.7-4.1-0.2
				c-0.2-0.3-0.5-0.5-0.8-0.7c1.8-1.2,5.5-1.8,5.5-1.8c-3-0.5-5.5,0.6-6.4,1.1c-0.5-0.3-1.1-0.6-1.7-0.7c1.9-1.1,5.7-2.8,11.2-2.8
				c5.4,0,9.3,1.7,11.2,2.8c-0.6,0.2-1.1,0.4-1.7,0.7c-1-0.5-3.4-1.6-6.4-1.1C51.3,31.3,55.1,31.8,56.8,33z M88.5,41.1
				c-1.6,1.4-6.9,5.8-13.3,9c0,0,2.9-3.1,4.1-7.6c0,0-4.8,5.6-9.7,7.1c0,0,2.6-1.8,3.9-5.2c0,0-2,2.2-4.9,2.9c0,0,1.9-3,0-7.9
				c0,0,2,1.3,2.8,3.9c0,0,0.5-5.4-5-9.7c-2.1-1.6-3.9-2.3-5.4-2.3c-1.2-0.9-5.6-3.6-12.8-3.6s-11.6,2.7-12.8,3.6
				c-1.6,0.1-3.4,0.7-5.4,2.3c-5.5,4.3-5,9.7-5,9.7c0.8-2.6,2.8-3.9,2.8-3.9c-1.9,4.9,0,7.9,0,7.9c-2.8-0.7-4.9-2.9-4.9-2.9
				c1.3,3.4,3.9,5.2,3.9,5.2c-4.9-1.6-9.7-7.1-9.7-7.1c1.2,4.4,4.1,7.6,4.1,7.6c-6.4-3.3-11.6-7.6-13.3-9c-0.9-1.2-1.7-2.3-2.4-3.3
				c8.6-0.1,16.9-6.8,21.2-17.3c2.6-6.4,5.9-9.1,7.1-9.9c0.2,0.9,0.8,2.4,2.1,3.9c1.8,2.1,5.4,4.6,12.2,4.6c6.8,0,10.4-2.5,12.2-4.6
				c1.3-1.5,1.9-3.1,2.1-3.9c1.3,0.9,4.5,3.6,7.1,9.9C74,30.9,82.2,37.6,90.9,37.7C90.2,38.8,89.4,39.9,88.5,41.1z M91.5,36.7
				c-8.5,0.2-16.6-6.3-20.9-16.7c-3.5-8.5-8-10.7-8.2-10.8l-0.6-0.3l-0.1,0.7c0,0.3-1.3,8.4-13.5,8.4c-12.2,0-13.4-8-13.5-8.4
				l-0.1-0.7l-0.6,0.3c-0.2,0.1-4.7,2.3-8.2,10.8C21.6,30.4,13.5,36.9,5,36.7c-0.9-1.5-1.5-2.7-1.9-3.5C14.3,34,18.7,25.7,23,17.6
				c0.9-1.8,1.9-3.6,3-5.3C30.4,5,36,3,38,2.5c-0.5,2.8-0.5,6.3,1.6,8.9c1.8,2.2,4.7,3.3,8.7,3.3c4,0,7-1.1,8.7-3.3
				c2.1-2.6,2.1-6.1,1.6-8.9c2,0.5,7.5,2.6,12,9.8c1,1.7,2,3.5,3,5.3c4.3,8.1,8.8,16.4,19.9,15.7C93.1,34,92.5,35.2,91.5,36.7z"/>
			<path class="st10" d="M64.6,56.1C60.9,45,49.3,35.4,49.2,35.3l2.2-0.5c3,2.7,11.8,11,15,20.8L64.6,56.1z"/>
			<path class="st10" d="M57.1,38.2c-1.6,0-3.2,0-4.7,0.4c-0.4,0.1-0.8,0.2-1.1,0.4c-1.3,0.6-1.7,1.6-1.4,3c0.1,0.3,0.2,0.7,0.4,1
				c0.9,1.5,2.1,2.9,3.5,4c0.7,0.5,1.5,1,2.4,1.1c1.3,0.2,2.6-0.1,3.7-0.9c0.5-0.3,0.9-0.7,1.3-1.2c1-1.2,1.7-2.6,2.1-4.2
				c0.1-0.5,0.1-0.9,0-1.4c-0.1-0.5-0.4-0.9-0.9-1.2c-1.1-0.6-2.3-0.9-3.6-1C58.4,38.1,57.8,38.2,57.1,38.2z"/>
		</g>
	</g>
	<g>
		<g>
			<path class="st11" d="M134.8,41.1h-7.5V29.3h-8.2v11.8h-7.5V10.2h7.5v11.2h8.2V10.2h7.5V41.1z"/>
			<path class="st11" d="M163.2,28.8c0,4.7-0.7,8-2.2,9.9c-1.5,1.9-4.1,2.9-7.9,2.9h-3.4c-3.8,0-6.4-0.9-7.9-2.8
				c-1.5-1.9-2.2-5.2-2.2-9.9v-6.3c0-4.7,0.7-8,2.2-9.9c1.5-1.9,4.1-2.8,7.9-2.8h3.4c3.8,0,6.4,0.9,7.9,2.8c1.5,1.9,2.2,5.2,2.2,9.9
				V28.8z M155.5,28.1v-5c0-2.2-0.2-3.7-0.5-4.3c-0.4-0.8-1.4-1.1-3-1.1h-1.3c-1.5,0-2.5,0.3-2.9,1c-0.4,0.7-0.6,2.2-0.6,4.4v5
				c0,2.2,0.2,3.6,0.5,4.3c0.4,0.8,1.4,1.1,2.9,1.1h1.3c1.5,0,2.5-0.3,2.9-1C155.3,31.8,155.5,30.4,155.5,28.1z"/>
			<path class="st11" d="M189.6,33c0,3.1-0.7,5.3-2.2,6.5c-1.4,1.1-3.8,1.7-7.3,1.7h-12.2V10.2h12.4c3.2,0,5.5,0.6,6.9,1.7
				c1.4,1.1,2.1,3,2.1,5.7v2c0,3-1.1,4.9-3.2,5.6c2.4,1.1,3.7,3.1,3.7,6V33z M181.6,20.5v-1.2c0-1.1-0.6-1.7-1.7-1.7h-4.5v4.5h4.5
				C181,22.2,181.6,21.6,181.6,20.5z M181.9,31.8v-1.2c0-0.7-0.1-1.1-0.4-1.4c-0.3-0.3-0.8-0.4-1.4-0.4h-4.7v4.9h4.7
				C181.3,33.6,181.9,33,181.9,31.8z"/>
			<path class="st11" d="M216.1,33c0,3.1-0.7,5.3-2.2,6.5c-1.4,1.1-3.8,1.7-7.3,1.7h-12.2V10.2h12.4c3.2,0,5.5,0.6,6.9,1.7
				c1.4,1.1,2.1,3,2.1,5.7v2c0,3-1.1,4.9-3.2,5.6c2.4,1.1,3.7,3.1,3.7,6V33z M208,20.5v-1.2c0-1.1-0.6-1.7-1.7-1.7h-4.5v4.5h4.5
				C207.5,22.2,208,21.6,208,20.5z M208.4,31.8v-1.2c0-0.7-0.1-1.1-0.4-1.4c-0.3-0.3-0.8-0.4-1.4-0.4h-4.7v4.9h4.7
				C207.8,33.6,208.4,33,208.4,31.8z"/>
			<path class="st11" d="M228.6,41.1H221V10.2h7.6V41.1z"/>
			<path class="st11" d="M253.6,17.7h-6.5v23.4h-7.6V17.7h-6.6v-7.5h20.7V17.7z"/>
		</g>
		<g>
			<g>
				<path class="st3" d="M122.8,53.1c0,1.8-0.4,3.1-1.2,3.9c-0.8,0.8-2.1,1.2-3.8,1.2h-2.5v3.8h-3.9V47.1h6.3c1.8,0,3,0.4,3.8,1.1
					c0.8,0.8,1.2,2,1.2,3.8V53.1z M118.8,53v-0.8c0-0.5-0.1-0.9-0.3-1.1c-0.2-0.2-0.6-0.3-1.1-0.3h-2.1v3.7h2.3c0.5,0,0.8-0.1,1-0.3
					C118.8,54,118.8,53.6,118.8,53z"/>
				<path class="st3" d="M143.4,61.9h-3.9V47.1h3.9V61.9z"/>
				<path class="st3" d="M171.7,61.9h-3.9v-2.8c0-0.5-0.1-0.9-0.3-1.1c-0.2-0.2-0.5-0.3-1-0.3h-1.8v4.2h-3.9V47.1h5.5
					c2,0,3.4,0.3,4.2,0.8c0.9,0.6,1.3,1.7,1.3,3.3v1.2c0,1.7-0.6,2.8-1.9,3.3c0.7,0.2,1.2,0.6,1.5,1.1c0.3,0.5,0.5,1.1,0.5,2V61.9z
					 M167.8,52.7v-0.6c0-0.5-0.1-0.9-0.3-1.1c-0.2-0.2-0.5-0.3-1-0.3h-1.8v3.4h1.8c0.5,0,0.8-0.1,1-0.3
					C167.7,53.6,167.8,53.2,167.8,52.7z"/>
				<path class="st3" d="M201,61.9h-4.2l-0.6-2.5h-3.8l-0.6,2.5h-4.2l3.9-14.8h5.7L201,61.9z M195.5,56.1l-1.2-5.6l-1.2,5.6H195.5z"
					/>
				<path class="st3" d="M227,50.7h-3.4v11.2h-3.9V50.7h-3.4v-3.6H227V50.7z"/>
				<path class="st3" d="M253.8,61.9h-10.3V47.1h10.2v3.6h-6.3v2.1h6.1V56h-6.1v2.3h6.5V61.9z"/>
			</g>
		</g>
	</g>
</g>
</svg>
